<?xml version="1.0" encoding="utf-8"?>
<!-- Generator: Adobe Illustrator 21.0.0, SVG Export Plug-In . SVG Version: 6.00 Build 0)  -->
<svg version="1.1" id="Layer_1" xmlns="http://www.w3.org/2000/svg" xmlns:xlink="http://www.w3.org/1999/xlink" x="0px" y="0px"
	 viewBox="0 0 191.2 47.1" style="enable-background:new 0 0 191.2 47.1;" xml:space="preserve">
<style type="text/css">
	.st0{fill:#5B697D;}
	.st1{fill:#2074E8;}
	.st2{fill:#FFFFFF;}
</style>
<title>blockone_logo</title>
<path class="st0" d="M15,15.9c0.1-0.8,0.9-1.3,1.2-1.9c0.5-1,0.9-2.1,1.1-3.1c0.4-2.2-0.5-4.1-1.1-5.4c-1.3-3-3.6-4.6-7.3-5.3
	C7.6,0,6.3-0.1,5.1,0C4.5,0,3.8,0,3.2,0.1C2.6,0.2,2,0.4,1.5,0.8c-1.8,1.4-1.5,4-1.5,6c0,2.5,0,5,0,7.5c0,5,0.1,9.9,0.1,14.9
	c0,2.1,0.7,3.4,2.8,3.9c1.8,0.2,3.6,0.3,5.5,0.1c5.7,0,8.2-2.4,9.6-6.7c0.6-2.2,0.6-4.5-0.1-6.7C17.2,18.3,16.2,17,15,15.9 M3.4,12
	c0-2.8,0-5.7,0-8.5l0.1-0.1h6c3.1,0.8,5.1,3.9,4.5,7c-0.1,1-0.4,2-0.9,2.9c-1.5,2.2-5.9,1.6-9.6,1.6C3.2,14.3,3.4,12.9,3.4,12
	 M15.2,24.2c-0.5,3.1-2.1,5-5.1,5.7H3.5H3.5c-0.2-1.3-0.2-2.5-0.1-3.8v-7.9L3.6,18h5.7c1.1-0.1,2.2,0,3.2,0.2c0.9,0.3,1.7,1,2.2,1.8
	c0.3,0.8,0.5,1.6,0.6,2.4C15.3,23,15.3,23.6,15.2,24.2 M84.1,22c-0.6,0.3-0.2,1.2-0.3,1.9c-0.1,0.9-0.3,1.7-0.6,2.5
	c-0.7,1.4-1.9,2.5-3.4,3.1c-3,1.1-6-0.9-7-2.7c-0.9-1.6-0.8-4-0.8-6.5v-8c-0.1-1.4-0.1-2.8,0.1-4.1c0.3-1.1,0.8-2,1.5-2.9
	c2.3-2.4,6.1-2.4,8.5-0.1c0.1,0.1,0.2,0.2,0.3,0.4c0.6,0.8,1.1,1.7,1.3,2.7c0.2,0.8,0,1.9,0.2,2.7c0.9,0.3,1.9,0.3,2.9,0.1
	c0.6-0.9-0.2-4.1-0.4-4.9c-1.3-3.4-4-6.2-8.8-6.1l-0.9,0.1l-1.8,0.5c-2.2,0.9-4,2.5-5,4.7c-1.1,2.2-0.9,5.6-0.9,8.9v7.6
	c-0.1,1.5,0,3,0.3,4.4c0.5,2,1.6,3.7,3.1,5c1,0.8,2.1,1.3,3.2,1.7c5,1.6,9.2-2,10.6-5.2c0.4-1,1.3-4,0.7-5.6
	C86,21.8,85,21.8,84.1,22 M110.2,4.3c0.8-0.7,1.6-1.5,2.3-2.3c0.3-0.4,0.8-0.7,1-1.1V0.4l-0.3-0.3h-3.3L108,1.8l-8,7.9l-2.7,2.7
	c-0.4,0.5-0.8,0.9-1.3,1.3c-0.2-0.2-0.1-2.7-0.1-3.3V2.8c0-0.9,0.2-2.3-0.3-2.7c-0.7-0.2-1.3-0.2-2-0.1c-0.3,0.1-0.5,0.2-0.6,0.4
	c-0.1,0.5-0.1,1.1-0.1,1.6v29.1c0,0.8-0.1,1.7,0.5,1.9h1.2c0.3,0,0.7,0,1-0.1c0.5-0.4,0.3-3,0.3-4c0-3.4,0-6.9,0-10.3
	c0.6-0.7,1.3-1.3,2-1.9c1,1.2,1.9,2.5,2.7,3.9l5.9,8.3l2.1,3c0.2,0.4,0.5,0.8,0.8,1.1h3.3l0.3-0.4c0.2-0.5-0.4-0.9-0.6-1.2l-2.2-3
	L102.7,18l-1.9-2.7c-0.1-0.2-0.6-0.6-0.6-0.9l3.4-3.4L110.2,4.3 M53.8,0.1l-0.9,0.1c-0.8,0.1-1.6,0.4-2.3,0.7
	c-2.7,1.2-4.6,3.6-5.3,6.5C45.1,8.5,45,9.8,45.1,11v11.2c-0.1,1.3,0,2.5,0.2,3.8c0.6,2.4,2.1,4.5,4.2,5.9c1,0.6,3,1.7,4.9,1.4
	c0.7-0.1,1.5-0.2,2.2-0.3c3-0.9,5.4-3.3,6.2-6.4c0.3-1.5,0.4-3,0.4-4.5V10.9c0.1-1.1,0-2.2-0.2-3.2C62,3.4,59.1,0,53.8,0.1 M60,24.5
	c-0.3,2.8-2.6,5-5.4,5.3c-1.2,0.2-2.5-0.1-3.5-0.9c-1.3-0.8-2.3-2-2.7-3.5c-0.3-1.3-0.4-2.6-0.3-3.9v-6c0-2.8-0.4-6.5,0.5-8.5
	c0.7-1.5,1.9-2.8,3.5-3.4l1.3-0.3c4,0,6.1,2,6.7,5.3L60,24.5z M36.8,29.8h-9.5c-0.1-0.6-0.2-1.2-0.1-1.8V2.2c0-0.7,0.1-1.6-0.3-1.9
	s-1.4-0.2-2-0.2c-0.3,0.1-0.5,0.2-0.6,0.5c-0.1,0.7-0.1,1.4-0.1,2.1v23c0,2.4-0.4,5.6,0.9,6.7c1,0.9,2.3,0.7,4.2,0.7h7.6
	c1.4,0,3.5,0.4,3.8-0.8c0.2-0.8,0-1.6-0.4-2.3C39.8,29.6,37.7,29.8,36.8,29.8"/>
<path class="st1" d="M139.6,11.2c0-1,0-2.1-0.1-3.1c-0.9-4.2-4-7.8-9.1-7.8l-1.1,0.1c-0.9,0.2-1.8,0.5-2.6,0.9
	c-2.9,1.8-3.9,4.3-5.7,7c-0.7,1-2.4,3-2.1,4.6c0.2,1,0.8,1.9,1.7,2.5c0.3,0.2,1.2,0.2,1.3,0.5v8.6c0.6,3.5,2.3,6.1,5.1,7.4
	c1.4,0.8,3,1.1,4.6,1c3.7-0.5,6.7-3,7.8-6.6c0.2-0.6,0.3-1.3,0.3-1.9c0.2-2.5,0.2-4.9,0.1-7.4L139.6,11.2z M134.2,28.5
	c-0.8,0.6-1.6,1-2.5,1.2c-1.3,0.2-2.5,0-3.7-0.6c-3.5-2-3.3-4.4-3.3-9.8v-5.2c-0.2-0.2-0.5-0.2-0.8-0.3c-0.6-0.3-1.1-0.8-1.3-1.5
	c-0.5-1.6,0.7-2.5,1.3-3.3c1.2-1.7,2.1-3.7,4-4.7c0.5-0.3,1-0.5,1.6-0.7l0.6-0.1c3.4,0,5.4,1.8,6.2,4.3c0.2,1.2,0.3,2.4,0.2,3.6v6.3
	C136.5,22.7,137,26.5,134.2,28.5 M164.9,0.2c-0.3,0.2-0.6,0.5-0.8,0.8v5.8c0,6.3,0,12.5,0,18.8h-0.2c-0.5-0.5-0.9-1.1-1.1-1.7
	c-0.9-1.5-1.9-2.8-2.8-4.3l-1.7-2.4c-0.7-1.2-1.4-2.4-2.3-3.5l-1.3-2.2l-3.5-5.2c-1-1.4-2-3-2.9-4.5c-0.3-0.5-0.7-1.4-1.7-1.2
	c-2.1,0.4-1.5,3.8-1.5,6.2v19.1c0,2.2,0,4.3,0,6.5c0.1,0.4,0.4,0.7,0.8,0.9h0.6c0.9,0,1.4,0,1.7-0.6c0.1-0.4,0.1-0.9,0.1-1.3V9.5
	c-0.1-0.6,0-1.3,0.1-1.9h0.1c0.7,1,1.4,2,2,3c1.1,1.8,2.4,3.6,3.5,5.5c1.6,2.5,3.4,4.9,4.8,7.6l2.4,3.6c0.5,0.9,1.1,1.8,1.7,2.7
	c0.4,0.8,0.9,1.6,1.5,2.3c0.4,0.4,1.2,1,1.9,0.5c0.4-0.2,0.7-0.6,0.9-1c0-2.2,0-4.4,0-6.6V6.4c0-1.5,0.3-5.4-0.5-6.1
	C166.5,0.1,165.4,0.2,164.9,0.2 M191,30c-0.8-0.6-2.9-0.3-4.3-0.3h-10.6c-0.5-0.7-0.3-3.1-0.3-4.3v-5.5c0-0.7-0.2-1.6,0.4-1.8h9.5
	c1.1,0,2.9,0.2,3.3-0.4c0.1-0.8,0.1-1.7,0-2.5l-0.3-0.3c-0.8-0.4-2.8,0-3.7-0.1c-2.9-0.2-6.2,0.2-9,0c-0.3-0.9-0.4-1.8-0.2-2.7
	c0-1.9,0-3.8,0.1-5.6c-0.1-0.9,0-1.8,0.2-2.7c1.2-0.2,2.3-0.2,3.5-0.1h7c1.4,0,3.3,0.3,3.8-0.5l0.2-2.2l-0.3-0.5
	c-0.7-0.4-3.6-0.2-4.7-0.2c-0.4,0.3-2.6,0.1-3.3,0.1l-6.9,0.2L174,1.1c-1.7,1.3-1.4,4.3-1.4,7.3v16.9c0,3.1-0.3,5.7,1.4,7.1
	c1,0.8,2.5,0.8,4.4,0.8h8.3c0.9,0,3.6,0.2,4-0.2S191.2,30.9,191,30"/>
<path class="st0" d="M133.1,38c0.5-0.1,0.9-0.1,1.4-0.1c0.6,0,1.1,0.1,1.6,0.5c0.3,0.3,0.5,0.7,0.5,1.2c0,0.4-0.1,0.9-0.4,1.2
	c-0.5,0.4-1.1,0.7-1.7,0.6c-0.2,0-0.4,0-0.6,0v2.3h-0.7V38z M133.8,40.8c0.2,0,0.4,0.1,0.6,0.1c0.9,0,1.4-0.4,1.4-1.2
	s-0.5-1.1-1.4-1.1c-0.2,0-0.5,0-0.7,0.1L133.8,40.8z"/>
<path class="st0" d="M141,41.5c0.1,1.1-0.7,2.1-1.8,2.2c-0.1,0-0.1,0-0.2,0c-1.1,0-2-0.9-2-2c0,0,0-0.1,0-0.1
	c-0.1-1.1,0.7-2.1,1.8-2.2c0.1,0,0.1,0,0.2,0c1.1,0,2,0.8,2,1.9C141,41.4,141,41.5,141,41.5 M137.8,41.5c0,0.9,0.5,1.6,1.2,1.6
	s1.2-0.7,1.2-1.6c0-0.7-0.4-1.6-1.2-1.6S137.8,40.8,137.8,41.5"/>
<path class="st0" d="M142.2,39.5l0.6,2.1c0.1,0.5,0.2,0.9,0.3,1.3l0,0c0.1-0.4,0.2-0.9,0.4-1.3l0.7-2.1h0.6l0.6,2
	c0.1,0.5,0.3,0.9,0.4,1.3l0,0c0.1-0.4,0.2-0.9,0.3-1.3l0.6-2.1h0.7l-1.3,4.1h-0.7l-0.6-2c-0.1-0.4-0.3-0.9-0.4-1.3l0,0
	c-0.1,0.5-0.2,0.9-0.4,1.3l-0.7,2h-0.7l-1.2-4.1L142.2,39.5z"/>
<path class="st0" d="M148.5,41.7c-0.1,0.7,0.5,1.4,1.2,1.4c0.1,0,0.1,0,0.2,0c0.4,0,0.8-0.1,1.1-0.2l0.1,0.5
	c-0.4,0.2-0.9,0.3-1.4,0.3c-1.1,0.1-2-0.8-2-1.8c0-0.1,0-0.2,0-0.3c-0.1-1.1,0.7-2.1,1.8-2.2c0,0,0.1,0,0.1,0c0.9,0,1.7,0.8,1.7,1.7
	c0,0.1,0,0.1,0,0.2c0,0.1,0,0.2,0,0.3L148.5,41.7z M150.7,41.2c0.1-0.6-0.3-1.1-0.9-1.2c0,0-0.1,0-0.1,0c-0.6,0-1.1,0.6-1.1,1.2
	H150.7z"/>
<path class="st0" d="M152.3,40.8c0-0.5,0-0.9,0-1.3h0.6v0.8l0,0c0.1-0.5,0.6-0.9,1.1-0.9h0.2v0.7c-0.1,0-0.2,0-0.3,0
	c-0.5,0-1,0.4-1,1c0,0.1,0,0.2,0,0.3v2.2h-0.8L152.3,40.8z"/>
<path class="st0" d="M158.5,37.6v5c0,0.4,0,0.8,0,1.1h-0.7V43l0,0c-0.3,0.5-0.8,0.8-1.4,0.8c-1-0.1-1.8-0.9-1.8-2c0,0,0-0.1,0-0.1
	c-0.1-1.1,0.7-2.1,1.8-2.2c0,0,0,0,0,0c0.5,0,1,0.2,1.2,0.6l0,0v-2.5H158.5z M157.8,41.2c0-0.1,0-0.2,0-0.3
	c-0.1-0.5-0.6-0.8-1.1-0.8c-0.8,0-1.2,0.7-1.2,1.6s0.4,1.5,1.2,1.5c0.5,0,1-0.4,1.1-0.9c0-0.1,0-0.2,0-0.3V41.2z"/>
<path class="st0" d="M161.6,37.6h0.7v2.6l0,0c0.3-0.5,0.8-0.8,1.4-0.8c1,0,1.7,0.8,1.7,2.1c0.1,1.1-0.7,2.1-1.8,2.2c0,0,0,0-0.1,0
	c-0.6,0-1.1-0.3-1.4-0.8l0,0v0.7h-0.6c0-0.3,0-0.7,0-1.1L161.6,37.6z M162.3,42c0,0.1,0,0.2,0,0.3c0.1,0.5,0.6,0.9,1.1,0.9
	c0.8,0,1.3-0.6,1.3-1.6s-0.4-1.6-1.2-1.6c-0.7,0-1.2,0.6-1.2,1.2V42z"/>
<path class="st0" d="M166.6,39.5l0.9,2.4c0.1,0.3,0.2,0.6,0.3,0.8l0,0c0.1-0.3,0.2-0.6,0.3-0.9l0.8-2.4h0.8l-1.1,2.9
	c-0.3,1-0.7,1.8-1.4,2.6c-0.3,0.2-0.6,0.4-0.9,0.5l-0.2-0.6c0.2-0.1,0.5-0.2,0.6-0.4c0.3-0.2,0.5-0.5,0.6-0.8c0.1-0.1,0.1-0.3,0-0.4
	l-1.5-3.8L166.6,39.5z"/>
<path class="st0" d="M177.6,44.4c-0.6,0.5-1.3,0.8-2,0.9c-0.3,0-0.6,0-0.8,0.1l0,0h-0.6c-0.3,0-0.5-0.2-0.5-0.4c0-0.1,0-0.2,0.1-0.3
	c0.2-0.3,0.5-0.5,0.9-0.5c0.4,0,0.9,0,1.3-0.1s0.5-0.3,0.4-0.6c0-0.4-0.2-0.7-0.5-0.9l-0.4-0.3c-0.2-0.1-0.3-0.4-0.2-0.6
	c0.1-0.5,0.6-0.9,1.2-0.8c0.2,0,0.3,0.1,0.4,0.2c0.6,0.4,1,1,1.3,1.7C178.3,43.2,178.1,43.9,177.6,44.4"/>
<path class="st0" d="M180.9,42c0,1-0.2,2-0.5,2.9c0,0.3-0.3,0.4-0.5,0.4c-0.1,0-0.2-0.1-0.3-0.1c-0.4-0.3-0.6-0.8-0.4-1.3
	c0.2-0.5,0.2-1.1,0.3-1.7c0-1-0.3-2-0.7-2.9c-0.1-0.2-0.2-0.4-0.3-0.7c-0.2-0.5,0-1.1,0.5-1.3c0,0,0.1,0,0.1,0
	c0.3-0.1,0.6,0,0.7,0.3c0.6,1,0.9,2,1.1,3.1C180.9,41.1,180.9,41.6,180.9,42"/>
<path class="st0" d="M185.5,39.5c-0.3,0.4-0.8,0.5-1.2,0.5c-0.2-0.1-0.3,0-0.4,0.2c-0.4,0.4-1,0.6-1.6,0.4c-0.6-0.1-0.9-0.7-0.8-1.3
	c0-0.2,0.1-0.3,0.2-0.4c0.2-0.2,0.5-0.3,0.7-0.2c0.1,0.1,0.2,0.2,0.2,0.3c0,0,0,0.1,0,0.1c-0.1,0.1-0.1,0.3,0,0.4
	c0.1,0.1,0.3,0.2,0.5,0.1h0.1c0.2-0.1,0.2-0.1,0.2-0.3c-0.1-0.3,0.1-0.6,0.4-0.8c0.2-0.1,0.3,0,0.5,0.2s0.3,0.3,0.6,0.2
	s0.2-0.1,0-0.2c-0.1-0.1-0.2-0.1-0.3-0.2c-0.3-0.2-0.3-0.3-0.3-0.5c0.1-0.3,0.4-0.5,0.7-0.4c0.6,0.1,1,0.7,0.8,1.3
	C185.7,39.2,185.6,39.3,185.5,39.5"/>
<path class="st0" d="M186.3,43.8c-0.5,1.1-1.3,2.1-2.4,2.7c-0.6,0.4-1.3,0.6-2,0.6c-0.4,0.1-0.8-0.1-1-0.4c-0.2-0.2-0.2-0.5,0-0.7
	c0.1-0.1,0.2-0.1,0.3-0.1c0.2-0.1,0.5-0.1,0.7-0.1c1.1-0.1,2-0.7,2.4-1.7c0,0,0-0.1,0-0.1h-0.5c-0.7,0-1.3-0.7-1.2-1.4
	c0-0.2,0.1-0.3,0.1-0.5c0.4-0.8,1.1-1.3,2-1.3c0.9-0.1,1.7,0.5,1.9,1.4c0,0,0,0,0,0C186.7,42.7,186.6,43.3,186.3,43.8"/>
<path class="st0" d="M191.2,41.5c-0.1,0.9-0.3,1.8-0.8,2.6c-0.8,1.3-2,2.4-3.5,3c-0.4,0.2-0.9,0.2-1.2-0.1c-0.4-0.3-0.3-0.7,0.1-0.9
	c0.7-0.3,1.3-0.6,1.9-1.1c0.9-0.7,1.6-1.6,1.9-2.7c0.1-0.3,0.1-0.6,0.2-0.9c0-0.2,0.1-0.5,0.4-0.6c0.3-0.1,0.6-0.1,0.8,0.1
	C191.1,41,191.2,41.2,191.2,41.5"/>
<rect x="-0.8" y="-34.5" transform="matrix(-1.836970e-16 1 -1 -1.836970e-16 -24.3642 -36.4892)" class="st2" width="13.8" height="8.1"/>
<rect x="24.2" y="-34.5" transform="matrix(-1.836970e-16 1 -1 -1.836970e-16 0.6898 -61.5432)" class="st2" width="13.8" height="8.1"/>
</svg>
