<svg xmlns="http://www.w3.org/2000/svg" viewBox="0 0 86.1 58.13"><defs><style>.cls-1{fill:#fffdfd;}</style></defs><title>rowad_white_logo</title><g id="Layer_2" data-name="Layer 2"><g id="Layer_1-2" data-name="Layer 1"><g id="Layer_2-2" data-name="Layer 2"><g id="Layer_1-2-2" data-name="Layer 1-2"><path class="cls-1" d="M6.6,44.52a12.51,12.51,0,0,1-4.3.7H.5L0,44H2.5a15.53,15.53,0,0,0,3.1-.3l-2.3-5.8H4.6l2.3,5.8Zm2.6-10.6h1.3v11.3H9.2Zm7.2,4a7.61,7.61,0,0,1,2.1.3.6.6,0,0,1,.4.1v6.8a3,3,0,0,1-.8,2.4,5.82,5.82,0,0,1-2.5,1.2l-.5-1.2a4.79,4.79,0,0,0,2-.7,1.72,1.72,0,0,0,.6-1.5v-6c-.4-.1-.9-.1-1.3-.2a2.06,2.06,0,0,0-1.7.7,2.87,2.87,0,0,0-.7,1.8,2.72,2.72,0,0,0,.6,1.7,2.19,2.19,0,0,0,1.7.7h1l-.5,1.2h-.5a3.2,3.2,0,0,1-1.9-.5,3,3,0,0,1-1.2-1.3,4.51,4.51,0,0,1,0-3.6,3.25,3.25,0,0,1,1.3-1.3,2.86,2.86,0,0,1,1.9-.6m6.3,7.3a3,3,0,0,1-2.7,3.4h-.1l-.5-1.1a2.57,2.57,0,0,0,1.6-.7,2.35,2.35,0,0,0,.5-1.6V38h1.3l-.1,7.2Zm9.2-7.3a14.05,14.05,0,0,1,1.8.2l.7.1v4.5a1.33,1.33,0,0,0,.3,1,.81.81,0,0,0,.9.3h.3c.1,0,.1,0,.1.1v1.1l-.1.1h-.6a2.19,2.19,0,0,1-1.7-.7,2.72,2.72,0,0,1-.6-1.7v-3.6c-.4-.1-.9-.1-1.3-.2a2.06,2.06,0,0,0-1.7.7,2.87,2.87,0,0,0-.7,1.8,2.72,2.72,0,0,0,.6,1.7,2.19,2.19,0,0,0,1.7.7h1.1l-.4,1h-.7a4.14,4.14,0,0,1-1.9-.5,3,3,0,0,1-1.2-1.3,4.51,4.51,0,0,1,0-3.6,3.25,3.25,0,0,1,1.3-1.3,5.22,5.22,0,0,1,2.1-.4m-2-2.8h1.4v1.5H29.9Zm2.8,0h1.4v1.5H32.7ZM38,44h0l.1,1.2H35.7c-.1,0-.1,0-.1-.1v-1l.1-.1Zm12.5-1.8a2,2,0,0,1-.1.8,2.1,2.1,0,0,0,2.1,1c.1,0,.1,0,.1.1v1.1l-.1.1a3.19,3.19,0,0,1-1.4-.3,3.13,3.13,0,0,1-1.1-.9,2.73,2.73,0,0,1-2.4,1.2A3.37,3.37,0,0,1,44.9,44a2.41,2.41,0,0,1-1,1,2.3,2.3,0,0,1-1.4.4H37.9v-1.2l.1-.1h1.9v-5.9h1.4v5.9h1.2a1.61,1.61,0,0,0,1.3-.6,2.39,2.39,0,0,0,.5-1.4v-4h1.3v4.1a1.4,1.4,0,0,0,.3.9,2.34,2.34,0,0,0,.7.7,3.81,3.81,0,0,0,1,.3,1.61,1.61,0,0,0,1.3-.6,2.39,2.39,0,0,0,.5-1.4v-4.6h1.3v4.9h-.2ZM54.3,44h0l.1,1.2H52V44l.1-.1Zm9.9,1.2a5.08,5.08,0,0,1-1.7-.3,2.94,2.94,0,0,1-1.2-1,2.41,2.41,0,0,1-1,1,3.08,3.08,0,0,1-1.3.3H54.3c-.1,0-.1,0-.1-.1v-1l.1-.1h1.9v-5.9h1.3V44h1.2a1.61,1.61,0,0,0,1.3-.6,2.39,2.39,0,0,0,.5-1.4V38h1.3v4.2a1.61,1.61,0,0,0,.3.9,5.5,5.5,0,0,0,.9.7,3.54,3.54,0,0,0,1.1.3h1.4v-6.6h1.3v7.8H64.2ZM76.6,44h0l.1,1.2-.1.1H75.1a3.58,3.58,0,0,1-.9,2.4,4.71,4.71,0,0,1-2.6,1.1l-.5-1.2a4.79,4.79,0,0,0,2-.7,1.66,1.66,0,0,0,.6-1.6v-5.9a5.7,5.7,0,0,0-1.3-.1,2.06,2.06,0,0,0-1.7.7,2.87,2.87,0,0,0-.7,1.8,2.72,2.72,0,0,0,.6,1.7,2.19,2.19,0,0,0,1.7.7h1l-.5,1.1h-.5a3.2,3.2,0,0,1-1.9-.5,3,3,0,0,1-1.2-1.3,4.51,4.51,0,0,1,0-3.6,3.25,3.25,0,0,1,1.3-1.3,4.65,4.65,0,0,1,2.1-.5,7.61,7.61,0,0,1,2.1.3.6.6,0,0,1,.4.1v5.8h1.5Zm-5.9-7.1L71,36h.9c-.2-.2-.2-.5-.3-.7a1.5,1.5,0,0,1,.4-1.1,1.29,1.29,0,0,1,1.2-.4,2.92,2.92,0,0,1,.9.2l-.3.8a1.27,1.27,0,0,0-.6-.1c-.2,0-.3.1-.5.2a1.42,1.42,0,0,0-.2.6.91.91,0,0,0,.3.7h1.8v.9l-3.9-.2ZM78.5,44h0l.1,1.2-.1.1H76.2c-.1,0-.1,0-.1-.1v-1.1l.1-.1Zm3.8-6.1a3.84,3.84,0,0,1,2.1.5,3.25,3.25,0,0,1,1.3,1.3,3.92,3.92,0,0,1,.4,1.8,11,11,0,0,1-.2,1.8,8.65,8.65,0,0,1-.7,1.7H78.5c-.1,0-.1,0-.1-.1v-1.1l.1-.1h1.2v-5.8a22.25,22.25,0,0,0,2.6,0m0,1.1a4.87,4.87,0,0,0-1.2.1v4.8h3.3a6.87,6.87,0,0,0,.5-2.4,2.27,2.27,0,0,0-2-2.5h-.6"/><path class="cls-1" d="M.5,51.82a8.08,8.08,0,0,1,1.6-.1,2.27,2.27,0,0,1,1.8.5,1.43,1.43,0,0,1,.6,1.2A1.71,1.71,0,0,1,3.3,55h0a1.42,1.42,0,0,1,.9,1.3,12.09,12.09,0,0,0,.5,1.8H3.8a8.33,8.33,0,0,1-.4-1.5c-.2-.9-.5-1.2-1.3-1.2H1.4v2.7H.5Zm.9,2.9h.8c.9,0,1.4-.5,1.4-1.2a1.27,1.27,0,0,0-1.4-1.2,2.2,2.2,0,0,0-.8.1Z"/><path class="cls-1" d="M11.1,54.82c0,2.2-1.3,3.3-2.9,3.3a2.92,2.92,0,0,1-2.9-3.2c0-2,1.2-3.3,2.9-3.3A2.92,2.92,0,0,1,11.1,54.82Zm-5,.1c0,1.4.7,2.6,2,2.6s2-1.2,2-2.6-.7-2.6-2-2.6S6.1,53.52,6.1,54.92Z"/><path class="cls-1" d="M13.1,58.12l-1.6-6.3h.9l.8,3.2c.2.8.4,1.6.5,2.2h0c.1-.6.3-1.4.5-2.2l.9-3.2H16l.8,3.2a9.33,9.33,0,0,1,.4,2.2h0a22.5,22.5,0,0,1,.5-2.2l.8-3.2h.8l-1.8,6.3h-.9l-.8-3.3a15.52,15.52,0,0,1-.4-2.1h0a16,16,0,0,1-.5,2.1l-.9,3.3Z"/><path class="cls-1" d="M20.5,56.12l-.7,2h-.9l2.2-6.3h1l2.2,6.3h-.9l-.7-2Zm2.1-.7-.6-1.8-.3-1.2h0l-.3,1.2-.6,1.8Z"/><path class="cls-1" d="M25.2,51.82a10.28,10.28,0,0,1,1.7-.1,3.66,3.66,0,0,1,2.6.8,2.81,2.81,0,0,1,.9,2.3,3.41,3.41,0,0,1-.9,2.4,3.66,3.66,0,0,1-2.8.9,7.57,7.57,0,0,1-1.5-.1Zm.8,5.6h.8a2.45,2.45,0,0,0,2.7-2.1v-.5a2.24,2.24,0,0,0-2.1-2.4h-.5a3.4,3.4,0,0,0-1,.1Z"/><path class="cls-1" d="M33.4,51.72h3.4v.7H34.3v2.1h2.4v.7H34.3v2.9h-.8v-6.4Z"/><path class="cls-1" d="M43.4,54.82c0,2.2-1.3,3.3-2.9,3.3a2.91,2.91,0,0,1-2.8-3.2,3,3,0,0,1,2.9-3.3C42.3,51.62,43.4,52.92,43.4,54.82Zm-4.9.1c0,1.4.7,2.6,2,2.6s2-1.2,2-2.6-.7-2.6-2-2.6-2,1.2-2,2.6Z"/><path class="cls-1" d="M45.3,51.72v3.8c0,1.4.6,2,1.5,2s1.5-.6,1.5-2v-3.8h.8v3.7c0,1.9-1,2.7-2.4,2.7s-2.3-.7-2.3-2.7v-3.7Z"/><path class="cls-1" d="M50.6,58.12v-6.3h.9l2,3.2a19.83,19.83,0,0,1,1.1,2h0a20.92,20.92,0,0,1-.1-2.6v-2.7h.8V58h-.8l-2-3.2-1.2-2.1h0c0,.8.1,1.6.1,2.6V58Z"/><path class="cls-1" d="M56.7,51.82a10.28,10.28,0,0,1,1.7-.1,3.66,3.66,0,0,1,2.6.8,2.81,2.81,0,0,1,.9,2.3,3.41,3.41,0,0,1-.9,2.4,3.66,3.66,0,0,1-2.8.9,7.57,7.57,0,0,1-1.5-.1Zm.8,5.6h.8a2.45,2.45,0,0,0,2.7-2.1v-.5a2.39,2.39,0,0,0-2-2.5h-.5a3.4,3.4,0,0,0-1,.1Z"/><path class="cls-1" d="M63.9,56.12l-.7,2h-.8l2.2-6.3h1l2.2,6.3h-.9l-.7-2Zm2.1-.7-.7-1.8-.3-1.2h0l-.3,1.2-.6,1.8Z"/><path class="cls-1" d="M69.1,52.42H67.2v-.7h4.7v.7H70V58h-.8Z"/><path class="cls-1" d="M73.4,51.72V58h-.8v-6.3Z"/><path class="cls-1" d="M80.2,54.82c0,2.2-1.3,3.3-2.9,3.3a2.91,2.91,0,0,1-2.8-3.2,3,3,0,0,1,2.9-3.3C79.1,51.62,80.2,52.92,80.2,54.82Zm-4.9.1c0,1.4.7,2.6,2,2.6s2-1.2,2-2.6-.7-2.6-2-2.6S75.3,53.52,75.3,54.92Z"/><path class="cls-1" d="M81.3,58.12v-6.3h.9l2,3.2a19.83,19.83,0,0,1,1.1,2h0a20.92,20.92,0,0,1-.1-2.6v-2.7H86V58h-.8l-2-3.2L82,52.72h0c0,.8.1,1.6.1,2.6V58Z"/><path class="cls-1" d="M31.1,18.32a8.15,8.15,0,0,1-5.1,2.2c-.7.1-1.4.1-2.1.2v-.1H22.5a1.11,1.11,0,0,1-1.3-1.1,1.61,1.61,0,0,1,.3-.9,2.61,2.61,0,0,1,2.2-1.3c1.1-.1,2.3-.1,3.4-.3.9-.2,1.1-.7,1.1-1.6a3.37,3.37,0,0,0-1.3-2.3,10.63,10.63,0,0,0-1.1-.9,1.66,1.66,0,0,1-.6-1.6,2.62,2.62,0,0,1,3.1-2,1.91,1.91,0,0,1,1,.5,9.07,9.07,0,0,1,3.2,4.3,4.83,4.83,0,0,1-1.4,4.9"/><path class="cls-1" d="M39.7,12.22a30.91,30.91,0,0,1-1.2,7.4,1.17,1.17,0,0,1-1.4,1,1,1,0,0,1-.7-.4,2.9,2.9,0,0,1-1.2-3.3,20.32,20.32,0,0,0,.7-4.3A17.22,17.22,0,0,0,34,5.32c-.3-.6-.6-1.1-.9-1.7A2.44,2.44,0,0,1,34.3.32c.1-.1.3-.1.4-.2a1.36,1.36,0,0,1,1.8.7,23.35,23.35,0,0,1,2.9,8c.1,1.3.2,2.3.3,3.4"/><path class="cls-1" d="M51.3,5.72A3.7,3.7,0,0,1,48.2,7c-.4-.2-.7.1-1,.4a4,4,0,0,1-4,1.1C41.1,8,40.6,5.82,41.6,4a1.44,1.44,0,0,1,1.8-.5,1.05,1.05,0,0,1,.5.9,1,1,0,0,1-.1.3c-.2.4-.3.7.1,1.1a1.31,1.31,0,0,0,1.2.3.37.37,0,0,0,.3-.1c.6-.2.6-.2.4-.8a1.58,1.58,0,0,1,1-1.9c.6-.2.8,0,1.2.5.4.7.7.8,1.4.6.3-.2.4-.3.1-.6l-.7-.5c-.7-.5-.8-.7-.7-1.3a1.45,1.45,0,0,1,1.7-1c1.8.6,3.2,2.8,1.5,4.7"/><path class="cls-1" d="M53.5,16.92a15.16,15.16,0,0,1-6.1,6.9,11.32,11.32,0,0,1-5.1,1.6,2.81,2.81,0,0,1-2.6-1,1.39,1.39,0,0,1,0-1.9.86.86,0,0,1,.6-.3l1.8-.3a8.16,8.16,0,0,0,6.3-4.3c0-.1.1-.2.1-.3a5.7,5.7,0,0,1-1.3-.1,3.28,3.28,0,0,1-3.1-3.5,2.77,2.77,0,0,1,.3-1.3,6,6,0,0,1,5-3.5,4.19,4.19,0,0,1,4.8,3.4v.2a8.05,8.05,0,0,1-.7,4.4"/><path class="cls-1" d="M65.8,10.82a15.51,15.51,0,0,1-2.1,6.6A19.41,19.41,0,0,1,54.8,25a2.91,2.91,0,0,1-3.1-.3,1.28,1.28,0,0,1-.5-1.7,1.56,1.56,0,0,1,.8-.6,17.16,17.16,0,0,0,4.9-2.9,14.67,14.67,0,0,0,4.9-6.9,8.51,8.51,0,0,0,.4-2.2,1.65,1.65,0,0,1,.9-1.5,2,2,0,0,1,2.1.3,1.58,1.58,0,0,1,.6,1.6"/></g></g></g></g></svg>